<svg id="Calque_1" data-name="Calque 1" xmlns="http://www.w3.org/2000/svg" viewBox="0 0 1323.04 279.8"><defs><style>.cls-1{fill:#4dc927;}.cls-2{fill:#08009f;}.cls-3{fill:#22b573;stroke:#000;stroke-miterlimit:10;}.cls-4{fill:#fff;}</style></defs><path class="cls-1" d="M480.92,493.08v-79H517.7q20.58,0,29.09,1.78a26.22,26.22,0,0,1,14.45,8.41,23.25,23.25,0,0,1,5.93,16.1,25.13,25.13,0,0,1-8.34,19.38q-8.34,7.64-21,7.64-8.8,0-18.84-6.89v32.56Zm38.77-61.9H519v17.18h.49l2.08.1q4.81,0,7.51-2.35a8.36,8.36,0,0,0,2.7-6.65c0-3.11-.87-5.26-2.62-6.47S524.28,431.18,519.69,431.18Z" transform="translate(-480.92 -414.1)"/><path class="cls-1" d="M615.41,463.73v29.35H577.3v-79h38.11V443H635V414.1h38v79H635V463.73Z" transform="translate(-480.92 -414.1)"/><path class="cls-1" d="M725.4,479.62l-4.89,13.46H681.9l30.8-79h54.38l29.22,79H758.11l-5-13.46Zm6.81-18.53h14.11l-7-19.3Z" transform="translate(-480.92 -414.1)"/><path class="cls-1" d="M804.44,493.08v-79h38.1q19.85,0,26.57.82a30.26,30.26,0,0,1,11.7,3.76,22.49,22.49,0,0,1,8,8,20.41,20.41,0,0,1,3,10.69q0,11.9-9.71,17.9,14,14.5,16.69,37.84h-39.6v-.73q0-13.92-4.24-21.22t-12-7.3h-.5v29.25Zm38.77-62.73h-.67v15.21h1c3.7,0,6.39-.62,8.05-1.86s2.49-3.22,2.49-5.95Q854.08,430.36,843.21,430.35Z" transform="translate(-480.92 -414.1)"/><path class="cls-1" d="M946.06,493.08H908v-79H944.9l15.44,16.46,15.53-16.46h37.19v79H975V453.54L960.34,468.8l-14.28-15.26Z" transform="translate(-480.92 -414.1)"/><path class="cls-1" d="M1066.1,479.62l-4.89,13.46H1022.6l30.8-79h54.38l29.22,79h-38.19l-5-13.46Zm6.81-18.53H1087l-7-19.3Z" transform="translate(-480.92 -414.1)"/><path class="cls-2" d="M1143.68,614.67h-95.46v-94H1099v70.44h44.69Z" transform="translate(-480.92 -414.1)"/><path class="cls-2" d="M1212.49,519q22.79,0,39.82,14.15t17,33.68q0,22-16.76,35.62t-43.2,13.62a64.81,64.81,0,0,1-40-13.25q-17.6-13.25-17.59-37.16,0-11.65,7.52-22.37t20.91-17.51Q1193.57,519,1212.49,519Zm-2,36.18a12.5,12.5,0,0,0-8.24,2.8,9.15,9.15,0,0,0-.06,14.15,12.49,12.49,0,0,0,8.3,2.77,12.77,12.77,0,0,0,8.41-2.74,9.25,9.25,0,0,0,0-14.18A12.65,12.65,0,0,0,1210.5,555.2Z" transform="translate(-480.92 -414.1)"/><path class="cls-2" d="M1400.76,614.79h-.66l-41.7,1q-24.45,0-36.4-3.33a55.86,55.86,0,0,1-21-10.81q-9-7.49-12.83-16.36a45.82,45.82,0,0,1-3.82-18.31q0-21.69,17.76-34.82T1348.66,519a126.93,126.93,0,0,1,28.15,3.36,122.72,122.72,0,0,1,26.94,9.34L1379.08,560q-14.6-6-27.43-6-8.75,0-14.11,3.51t-5.36,9.24q0,12.09,16.7,12.08h1.22V564.08h50.66Z" transform="translate(-480.92 -414.1)"/><path class="cls-2" d="M1470.34,614.67h-50.77v-94h50.77Z" transform="translate(-480.92 -414.1)"/><path class="cls-2" d="M1579,570.85l21.24,35.63q-6.64,3.51-19.42,6.56a121.38,121.38,0,0,1-28.15,3.05q-27.11,0-44.91-13.53t-17.81-34.48q0-21.26,18.09-35.16t45.74-13.9a120.18,120.18,0,0,1,24.89,2.72,82.86,82.86,0,0,1,21.57,7.33L1579,562.29a71.58,71.58,0,0,0-20.69-2.65q-16.26,0-16.26,7.08,0,3.39,4.43,5.43t12,2A56.77,56.77,0,0,0,1579,570.85Z" transform="translate(-480.92 -414.1)"/><path class="cls-3" d="M1618.63,693.49l5.89-4.33c128.12-94.21,126-92.12,126-92.12h0l-119.06,2.37-13.57,88.42,16.63-83.5-14.72-158.21L1747,593.44" transform="translate(-480.92 -414.1)"/><path class="cls-4" d="M1658.3,562.17v27.5h-11.38v-24Z" transform="translate(-480.92 -414.1)"/><path class="cls-4" d="M1674.51,578.56a5.2,5.2,0,0,1,3.86,1.68,6,6,0,0,1,0,8.17,5.33,5.33,0,0,1-7.75,0,5.62,5.62,0,0,1-1.62-4.07,5.73,5.73,0,0,1,1.61-4.09A5.16,5.16,0,0,1,1674.51,578.56Z" transform="translate(-480.92 -414.1)"/><path class="cls-4" d="M1696.67,562.17a11.89,11.89,0,0,1,8.93,4.06,13.68,13.68,0,0,1,3.81,9.69,14.18,14.18,0,0,1-3.75,10.24,12.82,12.82,0,0,1-9.68,3.92,12.54,12.54,0,0,1-9-3.81q-3.94-3.81-4-10.69a13.26,13.26,0,0,1,1.69-6.43,13.84,13.84,0,0,1,4.68-5A13,13,0,0,1,1696.67,562.17Zm-.49,16.07a2.57,2.57,0,0,0,1.94-.75,2.76,2.76,0,0,0,.73-2,3.12,3.12,0,0,0-.71-2.08,2.26,2.26,0,0,0-1.76-.83,2.61,2.61,0,0,0-2,.81,3,3,0,0,0,0,4A2.33,2.33,0,0,0,1696.18,578.24Z" transform="translate(-480.92 -414.1)"/><path class="cls-4" d="M507.3,566.07h-.09l-5.47.23a11.2,11.2,0,0,1-4.77-.78,7.29,7.29,0,0,1-2.74-2.56,12,12,0,0,1-1.69-3.87,18.79,18.79,0,0,1-.5-4.33,13.39,13.39,0,0,1,2.33-8.23,7.27,7.27,0,0,1,6.1-3.11,9.72,9.72,0,0,1,3.69.8,12.18,12.18,0,0,1,3.53,2.21l-3.23,6.69a6.11,6.11,0,0,0-3.6-1.43,2.29,2.29,0,0,0-1.85.83,3.24,3.24,0,0,0-.7,2.18c0,1.91.73,2.86,2.19,2.86h.16v-3.48h6.64Z" transform="translate(-480.92 -414.1)"/><path class="cls-4" d="M521.65,558.41h-6.23a4.08,4.08,0,0,0,1.11,2.1,2.51,2.51,0,0,0,1.79.75,3.84,3.84,0,0,0,3.33-1.91v3.08c-1.4,2.56-3.33,3.85-5.8,3.85a5.85,5.85,0,0,1-5-2.56,11.83,11.83,0,0,1-1.84-7,11.49,11.49,0,0,1,.92-4.58,6.75,6.75,0,0,1,2.3-3.09,5.48,5.48,0,0,1,3.18-1,4.7,4.7,0,0,1,2.16.56,6.57,6.57,0,0,1,2,1.69,8.42,8.42,0,0,1,1.41,2.81,13.8,13.8,0,0,1,.59,2.74C521.61,556.61,521.64,557.44,521.65,558.41Zm-6-11.08H513.6l1.37-3.91H519Zm-.63,8h2.86a4.66,4.66,0,0,0-.45-2c-.27-.5-.6-.75-1-.75a1.17,1.17,0,0,0-1,.73,3.77,3.77,0,0,0-.41,1.86Z" transform="translate(-480.92 -414.1)"/><path class="cls-4" d="M529.58,561.2V566h-6.12V548.53h6.12v3.7q1.17-3.88,3.38-3.88a2.36,2.36,0,0,1,2,1.21,5.78,5.78,0,0,1,.79,3.18,5.17,5.17,0,0,1-.81,3,2.49,2.49,0,0,1-2.11,1.15,2.91,2.91,0,0,1-2.37-1.6,3.53,3.53,0,0,0-.74,1.6A30.44,30.44,0,0,0,529.58,561.2Z" transform="translate(-480.92 -414.1)"/><path class="cls-4" d="M549.21,558.41H543a4.08,4.08,0,0,0,1.11,2.1,2.53,2.53,0,0,0,1.79.75,3.84,3.84,0,0,0,3.33-1.91v3.08c-1.4,2.56-3.33,3.85-5.8,3.85a5.83,5.83,0,0,1-5-2.56,11.76,11.76,0,0,1-1.84-7,11.49,11.49,0,0,1,.91-4.58,6.89,6.89,0,0,1,2.3-3.09,5.48,5.48,0,0,1,3.18-1,4.7,4.7,0,0,1,2.16.56,6.46,6.46,0,0,1,2,1.69,8.42,8.42,0,0,1,1.41,2.81,13.11,13.11,0,0,1,.59,2.74C549.17,556.61,549.2,557.44,549.21,558.41Zm-6.59-3.08h2.85a4.66,4.66,0,0,0-.45-2c-.27-.5-.6-.75-1-.75a1.17,1.17,0,0,0-1,.73,3.77,3.77,0,0,0-.4,1.86Z" transform="translate(-480.92 -414.1)"/><path class="cls-4" d="M558.65,560.17h4.16V566H550.1l4.28-11.93h-3.74v-5.58h12.23Z" transform="translate(-480.92 -414.1)"/><path class="cls-4" d="M578.27,566,573,548.53h6.06l1.4,4.44,1.39-4.44h5.91L582.61,566Z" transform="translate(-480.92 -414.1)"/><path class="cls-4" d="M594.29,548.13a5.37,5.37,0,0,1,4.56,2.57,11.29,11.29,0,0,1,1.79,6.63,10.78,10.78,0,0,1-1.79,6.53,5.75,5.75,0,0,1-4.86,2.42,5.31,5.31,0,0,1-4.56-2.58,11.71,11.71,0,0,1-1.76-6.77,10.25,10.25,0,0,1,1.85-6.33A5.74,5.74,0,0,1,594.29,548.13Zm-.14,10.93a1.14,1.14,0,0,0,1-.55,2.38,2.38,0,0,0,.38-1.39,2.78,2.78,0,0,0-.35-1.5,1,1,0,0,0-.92-.57,1.15,1.15,0,0,0-1,.56,2.9,2.9,0,0,0,0,2.87A1.08,1.08,0,0,0,594.15,559.06Z" transform="translate(-480.92 -414.1)"/><path class="cls-4" d="M609.55,548.53h2.58v4.89h-2.58v2.35a12.84,12.84,0,0,0,.17,2.56.9.9,0,0,0,1,.76c.55,0,1-.42,1.42-1.25v6.95a5.08,5.08,0,0,1-3.66,1.37,4.11,4.11,0,0,1-2-.58,5.33,5.33,0,0,1-1.76-1.72,6.28,6.28,0,0,1-1-2.41,29.51,29.51,0,0,1-.24-4.63v-3.4H601l8.56-9.94Z" transform="translate(-480.92 -414.1)"/><path class="cls-4" d="M620,561.2V566h-6.12V548.53H620v3.7q1.17-3.88,3.38-3.88a2.36,2.36,0,0,1,2,1.21,5.78,5.78,0,0,1,.79,3.18,5.1,5.1,0,0,1-.82,3,2.46,2.46,0,0,1-2.1,1.15,2.94,2.94,0,0,1-2.38-1.6,3.62,3.62,0,0,0-.73,1.6A30.44,30.44,0,0,0,620,561.2Z" transform="translate(-480.92 -414.1)"/><path class="cls-4" d="M639.6,558.41h-6.23a4.08,4.08,0,0,0,1.11,2.1,2.51,2.51,0,0,0,1.79.75,3.84,3.84,0,0,0,3.33-1.91v3.08c-1.4,2.56-3.33,3.85-5.8,3.85a5.83,5.83,0,0,1-5-2.56,11.76,11.76,0,0,1-1.85-7,11.49,11.49,0,0,1,.92-4.58,6.89,6.89,0,0,1,2.3-3.09,5.48,5.48,0,0,1,3.18-1,4.7,4.7,0,0,1,2.16.56,6.57,6.57,0,0,1,2,1.69,8.42,8.42,0,0,1,1.41,2.81,13.11,13.11,0,0,1,.59,2.74C639.56,556.61,639.59,557.44,639.6,558.41ZM633,555.33h2.85a4.66,4.66,0,0,0-.45-2c-.27-.5-.6-.75-1-.75a1.17,1.17,0,0,0-1,.73,3.77,3.77,0,0,0-.4,1.86Z" transform="translate(-480.92 -414.1)"/><path class="cls-4" d="M651.3,548.53h6.12v1.31a4,4,0,0,1,2.87-1.46,4.4,4.4,0,0,1,3.77,2.44,11.43,11.43,0,0,1,1.53,6.17A12.08,12.08,0,0,1,664,563.6a4.77,4.77,0,0,1-4.12,2.56,4.66,4.66,0,0,1-2.41-.74v5.52H651.3Zm6.12,7.69v3.16a1.74,1.74,0,0,0,1,.42,1,1,0,0,0,.92-.59,3.32,3.32,0,0,0,.33-1.62,3.26,3.26,0,0,0-.33-1.55,1,1,0,0,0-1.64-.26A1.71,1.71,0,0,0,657.42,556.22Z" transform="translate(-480.92 -414.1)"/><path class="cls-4" d="M667.46,543.8h6.11v7a4.23,4.23,0,0,1,3.77-2.4,3.49,3.49,0,0,1,2,.67,4.24,4.24,0,0,1,1.52,2,7.82,7.82,0,0,1,.63,2.47c0,.79.08,2.15.08,4.06V566h-5.77v-8.32a15.57,15.57,0,0,0-.21-3.3.91.91,0,0,0-1-.74,1.4,1.4,0,0,0-1.06.69V566h-6.11Z" transform="translate(-480.92 -414.1)"/><path class="cls-4" d="M689.65,566v-1.31a4.05,4.05,0,0,1-1.37,1,3.54,3.54,0,0,1-1.53.39,2.74,2.74,0,0,1-2.32-1.28,6.53,6.53,0,0,1,.23-7,3.76,3.76,0,0,1,3.07-1.37,5.4,5.4,0,0,1,1.9.4c0-1.69-.8-2.53-2.28-2.53a5.58,5.58,0,0,0-3.54,1.37v-5.28a8.7,8.7,0,0,1,5.92-2.08,6.47,6.47,0,0,1,3,.64,4.46,4.46,0,0,1,1.92,1.9,8,8,0,0,1,.88,2.55,27.36,27.36,0,0,1,.21,4V566Zm0-3.87v-2.45a2,2,0,0,0-1-.28,1.16,1.16,0,0,0-.92.42,1.58,1.58,0,0,0-.35,1,2.12,2.12,0,0,0,.35,1.25,1.16,1.16,0,0,0,1.89,0Z" transform="translate(-480.92 -414.1)"/><path class="cls-4" d="M704.07,561.2V566H698V548.53h6.12v3.7q1.17-3.88,3.38-3.88a2.33,2.33,0,0,1,2,1.21,5.7,5.7,0,0,1,.79,3.18,5.17,5.17,0,0,1-.81,3,2.46,2.46,0,0,1-2.1,1.15,2.94,2.94,0,0,1-2.38-1.6,3.51,3.51,0,0,0-.73,1.6A30.44,30.44,0,0,0,704.07,561.2Z" transform="translate(-480.92 -414.1)"/><path class="cls-4" d="M711.4,548.53h6.12v2.17a4.34,4.34,0,0,1,3.66-2.32q2.58,0,3.82,3,2-3,4.15-3a3.81,3.81,0,0,1,2.15.61,3.89,3.89,0,0,1,1.41,1.76,9,9,0,0,1,.63,2.37,39.61,39.61,0,0,1,.15,4.21V566h-5.76v-8.12a19,19,0,0,0-.19-3.58.89.89,0,0,0-1-.71,1.43,1.43,0,0,0-1.06.59V566h-5.77v-8.12a17.79,17.79,0,0,0-.2-3.57.9.9,0,0,0-1-.72,1.67,1.67,0,0,0-1.06.59V566H711.4Z" transform="translate(-480.92 -414.1)"/><path class="cls-4" d="M741.59,566v-1.31a4.19,4.19,0,0,1-1.38,1,3.53,3.53,0,0,1-1.52.39,2.76,2.76,0,0,1-2.33-1.28,6.56,6.56,0,0,1,.24-7,3.74,3.74,0,0,1,3.06-1.37,5.35,5.35,0,0,1,1.9.4c0-1.69-.8-2.53-2.27-2.53a5.58,5.58,0,0,0-3.54,1.37v-5.28a8.65,8.65,0,0,1,5.91-2.08,6.51,6.51,0,0,1,3,.64,4.46,4.46,0,0,1,1.92,1.9,8.23,8.23,0,0,1,.88,2.55,27.36,27.36,0,0,1,.21,4V566Zm0-3.87v-2.45a2,2,0,0,0-1-.28,1.15,1.15,0,0,0-.92.42,1.54,1.54,0,0,0-.36,1,2.06,2.06,0,0,0,.36,1.25,1.1,1.1,0,0,0,.92.49A1.12,1.12,0,0,0,741.59,562.17Z" transform="translate(-480.92 -414.1)"/><path class="cls-4" d="M760.83,557.92v7.61a9.38,9.38,0,0,1-3.83.75,6.63,6.63,0,0,1-5.47-2.46,10.65,10.65,0,0,1-2-6.86,11.1,11.1,0,0,1,1.75-6,6,6,0,0,1,5.5-2.79,9.62,9.62,0,0,1,4,1v7.7a5.85,5.85,0,0,0-3.32-1.32,2.1,2.1,0,0,0-1.35.43,1.34,1.34,0,0,0-.52,1.1c0,1.13.69,1.69,2.07,1.69A5.11,5.11,0,0,0,760.83,557.92Z" transform="translate(-480.92 -414.1)"/><path class="cls-4" d="M763.12,566V548.53a4.8,4.8,0,0,0,3,1,4.74,4.74,0,0,0,3.09-1V566Zm4.34-22.53a1.5,1.5,0,0,1,1.24.73,3,3,0,0,1,.51,1.78,3.19,3.19,0,0,1-.51,1.84,1.46,1.46,0,0,1-1.24.75,1.43,1.43,0,0,1-1.19-.76,3.18,3.18,0,0,1-.51-1.83,3.07,3.07,0,0,1,.51-1.77A1.45,1.45,0,0,1,767.46,543.51Z" transform="translate(-480.92 -414.1)"/><path class="cls-4" d="M783.77,558.41h-6.24a4.23,4.23,0,0,0,1.11,2.1,2.55,2.55,0,0,0,1.79.75,3.84,3.84,0,0,0,3.34-1.91v3.08c-1.4,2.56-3.34,3.85-5.8,3.85a5.85,5.85,0,0,1-5-2.56,11.76,11.76,0,0,1-1.84-7,11.49,11.49,0,0,1,.91-4.58,6.84,6.84,0,0,1,2.31-3.09,5.47,5.47,0,0,1,3.17-1,4.7,4.7,0,0,1,2.17.56,6.42,6.42,0,0,1,2,1.69,8.25,8.25,0,0,1,1.42,2.81,13.8,13.8,0,0,1,.59,2.74C783.73,556.61,783.76,557.44,783.77,558.41Zm-6.6-3.08H780a4.66,4.66,0,0,0-.45-2,1,1,0,0,0-2,0,3.77,3.77,0,0,0-.41,1.86Z" transform="translate(-480.92 -414.1)"/><path class="cls-4" d="M807.77,558.41h-6.24a4.08,4.08,0,0,0,1.11,2.1,2.53,2.53,0,0,0,1.79.75,3.86,3.86,0,0,0,3.34-1.91v3.08c-1.41,2.56-3.34,3.85-5.8,3.85a5.85,5.85,0,0,1-5-2.56,11.76,11.76,0,0,1-1.84-7,11.49,11.49,0,0,1,.91-4.58,6.84,6.84,0,0,1,2.31-3.09,5.42,5.42,0,0,1,3.17-1,4.64,4.64,0,0,1,2.16.56,6.34,6.34,0,0,1,2,1.69,8.24,8.24,0,0,1,1.41,2.81,13.11,13.11,0,0,1,.59,2.74C807.72,556.61,807.76,557.44,807.77,558.41Zm-6.6-3.08H804a4.66,4.66,0,0,0-.45-2,1.17,1.17,0,0,0-1-.75,1.18,1.18,0,0,0-1,.73,3.77,3.77,0,0,0-.4,1.86Z" transform="translate(-480.92 -414.1)"/><path class="cls-4" d="M809.58,548.53h6.12v2.17a4.29,4.29,0,0,1,3.65-2.32,3.8,3.8,0,0,1,2.14.61,3.84,3.84,0,0,1,1.41,1.71,8.14,8.14,0,0,1,.63,2.35,38.18,38.18,0,0,1,.16,4.28V566h-5.77v-8.12a20,20,0,0,0-.19-3.58.9.9,0,0,0-1-.71,1.56,1.56,0,0,0-1.06.59V566h-6.12Z" transform="translate(-480.92 -414.1)"/><path class="cls-4" d="M842.71,548.53h2.58v4.89h-2.58v2.35a13.66,13.66,0,0,0,.17,2.56.91.91,0,0,0,1,.76c.55,0,1-.42,1.42-1.25v6.95a5.05,5.05,0,0,1-3.65,1.37,4.11,4.11,0,0,1-2-.58,5.42,5.42,0,0,1-1.76-1.72,6.28,6.28,0,0,1-1-2.41,29.51,29.51,0,0,1-.24-4.63v-3.4h-2.44l8.56-9.94Z" transform="translate(-480.92 -414.1)"/><path class="cls-4" d="M853.31,548.13a5.39,5.39,0,0,1,4.56,2.57,11.36,11.36,0,0,1,1.79,6.63,10.72,10.72,0,0,1-1.8,6.53,5.75,5.75,0,0,1-4.86,2.42,5.33,5.33,0,0,1-4.56-2.58,11.79,11.79,0,0,1-1.76-6.77,10.25,10.25,0,0,1,1.86-6.33A5.74,5.74,0,0,1,853.31,548.13Zm-.15,10.93a1.11,1.11,0,0,0,1-.55,2.31,2.31,0,0,0,.39-1.39,2.87,2.87,0,0,0-.35-1.5,1,1,0,0,0-.93-.57,1.15,1.15,0,0,0-1,.56,2.9,2.9,0,0,0,0,2.87A1.08,1.08,0,0,0,853.16,559.06Z" transform="translate(-480.92 -414.1)"/><path class="cls-4" d="M869.43,548.53h6.11V566h-5.85V563a7.76,7.76,0,0,1-1.88,2.42,3.59,3.59,0,0,1-2.28.77,3.44,3.44,0,0,1-2-.66,3.9,3.9,0,0,1-1.38-1.72,7.16,7.16,0,0,1-.57-2.25c-.07-.79-.11-2.35-.11-4.68v-8.32h5.76v8.62a12.75,12.75,0,0,0,.16,2.44.9.9,0,0,0,1,.75,1,1,0,0,0,.75-.38,1.2,1.2,0,0,0,.32-.55Z" transform="translate(-480.92 -414.1)"/><path class="cls-4" d="M884.77,548.53h2.58v4.89h-2.58v2.35a12.65,12.65,0,0,0,.18,2.56.89.89,0,0,0,1,.76c.55,0,1-.42,1.42-1.25v6.95a5,5,0,0,1-3.65,1.37,4.11,4.11,0,0,1-2.05-.58,5.52,5.52,0,0,1-1.76-1.72,6.44,6.44,0,0,1-1-2.41,29.51,29.51,0,0,1-.24-4.63v-3.4h-2.43l8.55-9.94Z" transform="translate(-480.92 -414.1)"/><path class="cls-4" d="M901.37,558.41h-6.23a4.08,4.08,0,0,0,1.11,2.1,2.51,2.51,0,0,0,1.79.75,3.84,3.84,0,0,0,3.33-1.91v3.08c-1.4,2.56-3.33,3.85-5.8,3.85a5.83,5.83,0,0,1-5-2.56,11.76,11.76,0,0,1-1.85-7,11.49,11.49,0,0,1,.92-4.58,6.89,6.89,0,0,1,2.3-3.09,5.48,5.48,0,0,1,3.18-1,4.7,4.7,0,0,1,2.16.56,6.57,6.57,0,0,1,2,1.69,8.42,8.42,0,0,1,1.41,2.81,13.11,13.11,0,0,1,.59,2.74C901.33,556.61,901.36,557.44,901.37,558.41Zm-6.59-3.08h2.85a4.66,4.66,0,0,0-.45-2c-.27-.5-.6-.75-1-.75a1.17,1.17,0,0,0-1,.73,3.77,3.77,0,0,0-.4,1.86Z" transform="translate(-480.92 -414.1)"/><path class="cls-4" d="M913.45,559.41a5.61,5.61,0,0,0,1.52,2,2.82,2.82,0,0,0,1.73.72c.79,0,1.19-.43,1.19-1.28a1.61,1.61,0,0,0-.26-.9,1.77,1.77,0,0,0-.79-.61l-1.36-.62a4.6,4.6,0,0,1-2.2-2,6.41,6.41,0,0,1-.77-3.25,4.91,4.91,0,0,1,1.58-3.9,6.5,6.5,0,0,1,4.45-1.39,9,9,0,0,1,5.08,1.5l-1.47,4.48c-1-1.28-1.87-1.91-2.75-1.91a1,1,0,0,0-.76.28,1,1,0,0,0-.29.75,1.44,1.44,0,0,0,.41,1.07,4.42,4.42,0,0,0,1.49.78,4.84,4.84,0,0,1,3,2.31,7.4,7.4,0,0,1,.67,3.13,5.88,5.88,0,0,1-1.47,4.2,5.23,5.23,0,0,1-4,1.56,11.27,11.27,0,0,1-3.12-.52,14.51,14.51,0,0,1-3.27-1.42Z" transform="translate(-480.92 -414.1)"/><path class="cls-4" d="M925.54,566V548.53a4.8,4.8,0,0,0,3,1,4.74,4.74,0,0,0,3.09-1V566Zm4.34-22.53a1.49,1.49,0,0,1,1.24.73,3,3,0,0,1,.51,1.78,3.26,3.26,0,0,1-.5,1.84,1.49,1.49,0,0,1-1.25.75,1.43,1.43,0,0,1-1.19-.76,3.18,3.18,0,0,1-.51-1.83,3.07,3.07,0,0,1,.51-1.77A1.45,1.45,0,0,1,929.88,543.51Z" transform="translate(-480.92 -414.1)"/><path class="cls-4" d="M933.9,548.53H940v2.17a4.34,4.34,0,0,1,3.66-2.32c1.72,0,3,1,3.83,3q1.95-3,4.14-3a3.69,3.69,0,0,1,3.56,2.37,8.32,8.32,0,0,1,.63,2.37,39.61,39.61,0,0,1,.15,4.21V566h-5.76v-8.12a19,19,0,0,0-.19-3.58.89.89,0,0,0-1-.71,1.43,1.43,0,0,0-1.06.59V566h-5.77v-8.12a19,19,0,0,0-.19-3.57.91.91,0,0,0-1-.72,1.67,1.67,0,0,0-1.06.59V566H933.9Z" transform="translate(-480.92 -414.1)"/><path class="cls-4" d="M958.09,548.53h6.12v1.31a4,4,0,0,1,2.87-1.46,4.4,4.4,0,0,1,3.77,2.44,11.43,11.43,0,0,1,1.53,6.17,12.17,12.17,0,0,1-1.63,6.61,4.8,4.8,0,0,1-4.13,2.56,4.68,4.68,0,0,1-2.41-.74v5.52h-6.12Zm6.12,7.69v3.16a1.74,1.74,0,0,0,1,.42,1,1,0,0,0,.92-.59,3.32,3.32,0,0,0,.33-1.62,3.26,3.26,0,0,0-.33-1.55,1,1,0,0,0-.86-.62,1,1,0,0,0-.77.36A1.61,1.61,0,0,0,964.21,556.22Z" transform="translate(-480.92 -414.1)"/><path class="cls-4" d="M980.42,543.8V566H974.3V543.8Z" transform="translate(-480.92 -414.1)"/><path class="cls-4" d="M982.71,566V548.53a4.85,4.85,0,0,0,3,1,4.73,4.73,0,0,0,3.08-1V566Zm4.34-22.53a1.49,1.49,0,0,1,1.24.73,3,3,0,0,1,.51,1.78,3.26,3.26,0,0,1-.5,1.84,1.49,1.49,0,0,1-1.25.75,1.44,1.44,0,0,1-1.19-.76,3.18,3.18,0,0,1-.51-1.83,3.07,3.07,0,0,1,.51-1.77A1.46,1.46,0,0,1,987.05,543.51Z" transform="translate(-480.92 -414.1)"/><path class="cls-4" d="M1002,557.92v7.61a9.35,9.35,0,0,1-3.83.75,6.64,6.64,0,0,1-5.47-2.46,10.65,10.65,0,0,1-2-6.86,11.1,11.1,0,0,1,1.75-6,6,6,0,0,1,5.5-2.79,9.62,9.62,0,0,1,4,1v7.7a5.85,5.85,0,0,0-3.32-1.32,2.1,2.1,0,0,0-1.35.43,1.37,1.37,0,0,0-.52,1.1c0,1.13.69,1.69,2.08,1.69A5.1,5.1,0,0,0,1002,557.92Z" transform="translate(-480.92 -414.1)"/><path class="cls-4" d="M1004.3,566V548.53a4.8,4.8,0,0,0,3,1,4.74,4.74,0,0,0,3.09-1V566Zm4.34-22.53a1.49,1.49,0,0,1,1.24.73,3,3,0,0,1,.51,1.78,3.26,3.26,0,0,1-.5,1.84,1.49,1.49,0,0,1-1.25.75,1.43,1.43,0,0,1-1.19-.76,3.18,3.18,0,0,1-.51-1.83,3.07,3.07,0,0,1,.51-1.77A1.45,1.45,0,0,1,1008.64,543.51Z" transform="translate(-480.92 -414.1)"/><path class="cls-4" d="M1019.69,548.53h2.58v4.89h-2.58v2.35a13.66,13.66,0,0,0,.17,2.56.91.91,0,0,0,1,.76c.55,0,1-.42,1.42-1.25v6.95a5.07,5.07,0,0,1-3.65,1.37,4.11,4.11,0,0,1-2-.58,5.42,5.42,0,0,1-1.76-1.72,6.28,6.28,0,0,1-1-2.41,29.51,29.51,0,0,1-.24-4.63v-3.4h-2.44l8.56-9.94Z" transform="translate(-480.92 -414.1)"/><path class="cls-4" d="M1036.29,558.41h-6.24a4.23,4.23,0,0,0,1.11,2.1,2.55,2.55,0,0,0,1.79.75,3.84,3.84,0,0,0,3.34-1.91v3.08c-1.4,2.56-3.34,3.85-5.8,3.85a5.85,5.85,0,0,1-5-2.56,11.76,11.76,0,0,1-1.84-7,11.49,11.49,0,0,1,.91-4.58,6.84,6.84,0,0,1,2.31-3.09,5.47,5.47,0,0,1,3.17-1,4.64,4.64,0,0,1,2.16.56,6.34,6.34,0,0,1,2,1.69,8.25,8.25,0,0,1,1.42,2.81,13,13,0,0,1,.58,2.74C1036.25,556.61,1036.28,557.44,1036.29,558.41Zm-6-11.08h-2.08l1.36-3.91h4.08Zm-.63,8h2.86a4.66,4.66,0,0,0-.45-2,1,1,0,0,0-2,0,3.77,3.77,0,0,0-.41,1.86Z" transform="translate(-480.92 -414.1)"/></svg>